<?xml version="1.0" encoding="UTF-8"?>
<svg id="Layer_1" xmlns="http://www.w3.org/2000/svg" version="1.1" viewBox="0 0 256 256">
  <!-- Generator: Adobe Illustrator 30.3.0, SVG Export Plug-In . SVG Version: 2.1.3 Build 182)  -->
  <defs>
    <style>
      .st0 {
        fill: #f15a29;
      }
    </style>
  </defs>
  <path class="st0" d="M149.71,95.05l13.65-4.55h0l-13.67-4.56c-.85-4.05-2.8-7.69-5.53-10.6l1.52-2.53h0s-2.01,2.01-2.01,2.01h0l2.01-2.01-2.53,1.52c-2.91-2.73-6.55-4.7-10.6-5.55l-4.55-13.65h0s-4.55,13.67-4.55,13.67c-4.05.85-7.69,2.8-10.6,5.53l-2.53-1.52,2.01,2.01h0l-2.01-2.01,1.52,2.53c-2.73,2.91-4.7,6.55-5.55,10.6l-13.65,4.55h0l13.67,4.56c.85,4.05,2.8,7.69,5.53,10.6l-1.52,2.53h0s2.53-1.52,2.53-1.52c2.91,2.73,6.55,4.7,10.6,5.55l4.55,13.65h0s4.55-13.67,4.55-13.67c4.05-.85,7.69-2.8,10.6-5.53l2.53,1.52h0s-1.52-2.53-1.52-2.53c2.73-2.91,4.7-6.55,5.55-10.6ZM143.63,104.77l-1.63-2.71c1.34-1.62,2.41-3.46,3.12-5.48l3.47-1.16c-.84,3.55-2.59,6.74-4.97,9.35ZM114.6,102.02l1.83-3.06,1.81.6-3.08,3.08-.35.35-1.97,1.97,1.49-2.49.27-.45ZM120.14,102.29l1.58,4.74c-1.77-.67-3.4-1.62-4.84-2.79l3.26-1.95h0ZM119.16,99.34l-2.95-.98-1.95,3.25c-1.17-1.44-2.11-3.07-2.78-4.83l4.73,1.58,2.95.98,4.42-4.42,4.42-4.42-8.84,8.84h0ZM115.51,77.31l-1.96-1.97,2.48,1.49.45.27,3.06,1.84-.6,1.8-3.08-3.09-.35-.34ZM116.21,82.64h0s-4.74,1.58-4.74,1.58c.67-1.77,1.62-3.4,2.79-4.84l1.95,3.26ZM119.16,81.66h0s0,0,0,0h0s.98-2.95.98-2.95l-3.25-1.95c1.44-1.17,3.07-2.11,4.83-2.78l-1.58,4.73-.98,2.95,4.42,4.42h0s-4.42-4.42-4.42-4.42h0ZM140.5,78l-3.66,3.66,2.95.98,1.95-3.25c1.17,1.44,2.11,3.07,2.78,4.83l-4.73-1.58-2.95-.98h0s3.66-3.66,3.66-3.66h0ZM141.4,78.98l-1.84,3.06-1.8-.6,3.09-3.08.34-.35,1.97-1.96-1.49,2.48-.27.45ZM135.86,78.71h0s-1.58-4.74-1.58-4.74c1.77.67,3.4,1.62,4.84,2.79l-3.26,1.95ZM134.63,97.13l2.21,2.21h0,0s-.98,2.95-.98,2.95l3.25,1.95c-1.44,1.17-3.07,2.11-4.83,2.78l1.58-4.73.98-2.95-2.21-2.21ZM139.79,98.36h0s4.74-1.58,4.74-1.58c-.67,1.77-1.62,3.4-2.79,4.84l-1.95-3.26ZM136.46,102.07l.6-1.81,3.08,3.08.35.35,1.97,1.97-2.49-1.49-.45-.27-3.06-1.83ZM149.81,94.49l-1.08.36-3.4,1.13-.59.2-7.77,2.59-7.76-7.77h31.06l-10.46,3.49ZM148.59,85.58l-3.46-1.15c-.72-2.02-1.78-3.87-3.12-5.49l1.62-2.7c2.38,2.6,4.11,5.8,4.96,9.34ZM142.96,75.54l-2.11,2.11h0l2.11-2.11h0ZM142.27,74.87l-2.71,1.63c-1.62-1.34-3.46-2.41-5.48-3.13l-1.16-3.46c3.55.84,6.74,2.59,9.35,4.97ZM128.5,58.23l3.49,10.46.36,1.08,1.13,3.4.2.58,2.59,7.78-7.77,7.76v-31.06ZM123.08,69.91l-1.15,3.46c-2.02.72-3.87,1.78-5.49,3.12l-2.7-1.62c2.6-2.38,5.8-4.11,9.34-4.96ZM113.04,75.54l2.11,2.11h0l-2.11-2.11h0ZM112.37,76.23l1.63,2.71c-1.34,1.62-2.41,3.46-3.12,5.48l-3.47,1.16c.84-3.55,2.59-6.74,4.97-9.35ZM106.19,86.51l1.08-.36,3.4-1.13.59-.2,7.77-2.59,7.76,7.77h-31.06l10.46-3.49ZM107.41,95.42l3.46,1.15c.72,2.02,1.78,3.87,3.12,5.49l-1.62,2.7c-2.38-2.6-4.11-5.8-4.96-9.34ZM113.73,106.13l2.71-1.63c1.62,1.34,3.46,2.41,5.48,3.13l1.16,3.46c-3.55-.84-6.74-2.59-9.35-4.97ZM127.5,122.77l-3.49-10.46-.36-1.08-1.13-3.4-.2-.58-2.59-7.78,7.77-7.76v31.06ZM132.92,111.09l1.15-3.46c2.02-.72,3.87-1.78,5.49-3.12l2.7,1.62c-2.6,2.38-5.8,4.11-9.34,4.96Z"/>
  <path class="st0" d="M128,26.5c-35.29,0-64,28.71-64,64v75c0,35.29,28.71,64,64,64s64-28.71,64-64v-75c0-35.29-28.71-64-64-64ZM128,226.5c-33.64,0-61-27.36-61-61v-73.5l23.5-1.5-23.46-1.5c.79-32.44,27.02-58.67,59.46-59.46l1.5,23.46,1.5-23.46c32.44.79,58.67,27.02,59.46,59.46l-23.46,1.5,23.5,1.5v73.5c0,33.64-27.36,61-61,61Z"/>
</svg>